<?xml version="1.0" encoding="utf-8"?>
<!-- Generator: Adobe Illustrator 17.1.0, SVG Export Plug-In . SVG Version: 6.00 Build 0)  -->
<!DOCTYPE svg PUBLIC "-//W3C//DTD SVG 1.1//EN" "http://www.w3.org/Graphics/SVG/1.1/DTD/svg11.dtd">
<svg version="1.1" id="图层_1" xmlns="http://www.w3.org/2000/svg" xmlns:xlink="http://www.w3.org/1999/xlink" x="0px" y="0px"
	 viewBox="0 0 40 40" enable-background="new 0 0 40 40" xml:space="preserve">
<g display="none">
	<path display="inline" fill="none" stroke="#4D5054" stroke-linecap="round" stroke-linejoin="round" stroke-miterlimit="10" d="
		M8.3,31.8c-1.5-1.5-2.7-3.2-3.6-5.3"/>
	<path display="inline" fill="none" stroke="#4D5054" stroke-linecap="round" stroke-linejoin="round" stroke-miterlimit="10" d="
		M34.3,26.5c-0.8,1.9-1.9,3.6-3.4,5.1s-3.2,2.7-5.3,3.6"/>
	<path display="inline" fill="none" stroke="#4D5054" stroke-linecap="round" stroke-linejoin="round" stroke-miterlimit="10" d="
		M34.3,14.2c0.8,2,1.2,4.2,1.2,6.2"/>
	<path display="inline" fill="none" stroke="#4D5054" stroke-linecap="round" stroke-linejoin="round" stroke-miterlimit="10" d="
		M4.7,14.2c0.8-1.9,1.9-3.6,3.4-5.1s3.2-2.7,5.3-3.6s4.2-1.2,6.2-1.2"/>
	<path display="inline" fill="none" stroke="#4D5054" stroke-linecap="round" stroke-linejoin="round" stroke-miterlimit="10" d="
		M32.1,20.4c0,1.7-0.4,3.4-1,4.9c-0.6,1.5-1.6,2.9-2.7,4c-1.1,1.1-2.5,2.1-4,2.7c-1.5,0.6-3.2,1-4.9,1s-3.4-0.4-4.9-1
		s-2.9-1.6-4-2.7c-1.1-1.1-2.1-2.5-2.7-4c-0.6-1.5-1-3.2-1-4.9s0.4-3.4,1-4.9c0.6-1.5,1.6-2.9,2.7-4s2.5-2.1,4-2.7
		c1.5-0.6,3.2-1,4.9-1s3.4,0.4,4.9,1c1.5,0.6,2.9,1.6,4,2.7s2.1,2.5,2.7,4S32.1,18.6,32.1,20.4z"/>
	<g display="inline">
		<path fill="#3D9CEA" d="M18.8,23.1c-0.1,0-0.3-0.1-0.3-0.3c0-1.6,0.2-2.4,0.6-3.1c0.2-0.4,0.5-0.7,0.9-1c0.2-0.2,0.4-0.4,0.6-0.7
			c0.6-0.6,0.8-1.3,0.8-2.1c0-1.4-0.8-2.2-2.1-2.2c-1,0-1.6,0.6-2,1.6C17.3,15.7,17,16,16.5,16c-0.5,0-0.8-0.3-0.8-0.9
			c0-0.9,1.1-2.6,3.7-2.6c2.3,0,3.8,1.3,3.8,3.2c0,1.5-0.8,2.4-1.4,3c-0.1,0.1-0.3,0.2-0.5,0.4c-0.4,0.3-0.7,0.6-1.1,1
			c-0.3,0.3-0.7,0.9-0.7,2.7c0,0.1-0.1,0.3-0.3,0.3H18.8z"/>
		<path fill="#4D5054" d="M19.5,12.8c2.2,0,3.6,1.3,3.6,3c0,1.3-0.6,2.1-1.3,2.8c-0.5,0.4-1,0.7-1.6,1.4c-0.5,0.4-0.8,1.1-0.8,2.9
			h-0.6c0-1.6,0.2-2.4,0.6-3c0.3-0.5,0.9-1,1.5-1.7c0.7-0.7,0.9-1.5,0.9-2.3c0-1.5-0.8-2.4-2.3-2.4c-1.2,0-1.8,0.7-2.3,1.8
			c-0.1,0.3-0.3,0.5-0.6,0.5c-0.3,0-0.5-0.2-0.5-0.6C16,14.4,17,12.8,19.5,12.8 M19.5,12.3c-2.8,0-4,1.8-4,2.8c0,0.7,0.4,1.1,1,1.1
			c0.5,0,0.8-0.3,1.1-0.8c0.5-1.1,1-1.5,1.8-1.5c1.5,0,1.8,1,1.8,1.9c0,0.8-0.2,1.4-0.8,2c-0.2,0.3-0.4,0.5-0.6,0.7
			c-0.3,0.4-0.7,0.7-0.9,1.1c-0.5,0.7-0.6,1.6-0.6,3.2c0,0.3,0.2,0.5,0.5,0.5h0.6c0.3,0,0.5-0.2,0.5-0.5c0-1.8,0.4-2.3,0.6-2.5
			c0.4-0.4,0.8-0.7,1.1-1c0.2-0.1,0.3-0.2,0.5-0.4c0.6-0.6,1.5-1.5,1.5-3.2C23.6,13.8,21.9,12.3,19.5,12.3L19.5,12.3z"/>
	</g>
	<g display="inline">
		<path fill="#3D9CEA" d="M19.1,28.7c-0.8,0-1.4-0.7-1.4-1.5s0.6-1.5,1.4-1.5c0.9,0,1.4,0.8,1.4,1.5C20.5,28.1,19.9,28.7,19.1,28.7z
			"/>
		<path fill="#4D5054" d="M19.1,26c0.7,0,1.2,0.6,1.2,1.2c0,0.7-0.5,1.2-1.2,1.2c-0.7,0-1.2-0.6-1.2-1.2C17.9,26.6,18.4,26,19.1,26
			 M19.1,25.5c-0.9,0-1.7,0.8-1.7,1.7c0,1,0.7,1.7,1.7,1.7c0.9,0,1.7-0.8,1.7-1.7C20.8,26.4,20.1,25.5,19.1,25.5L19.1,25.5z"/>
	</g>
</g>
<g display="none">
	<path display="inline" fill="none" stroke="#4D5054" stroke-linecap="round" stroke-linejoin="round" stroke-miterlimit="10" d="
		M21.1,31.2H4.9c-0.3,0-0.5-0.1-0.5-0.3v-6.1c0-0.2,0.2-0.3,0.5-0.3h16.2c0.3,0,0.5,0.1,0.5,0.3v6.1C21.6,31,21.4,31.2,21.1,31.2z"
		/>
	<path display="inline" fill="none" stroke="#4D5054" stroke-linecap="round" stroke-linejoin="round" stroke-miterlimit="10" d="
		M35.9,31.2H25.3c-0.2,0-0.3-0.4-0.3-1V10.8c0-0.5,0.2-1,0.3-1h10.7c0.2,0,0.3,0.4,0.3,1v19.4C36.3,30.7,36.1,31.2,35.9,31.2z"/>
	<path display="inline" fill="none" stroke="#4D5054" stroke-linecap="round" stroke-linejoin="round" stroke-miterlimit="10" d="
		M20.8,21.2H4.9c-0.3,0-0.5-0.2-0.5-0.5V10.4c0-0.3,0.2-0.5,0.5-0.5h15.9c0.3,0,0.5,0.2,0.5,0.5v10.3C21.3,21,21,21.2,20.8,21.2z"/>
	
		<path display="inline" fill="#3D9CEA" stroke="#4D5054" stroke-linecap="round" stroke-linejoin="round" stroke-miterlimit="10" d="
		M5.8,10.2C5.8,11.2,5,12,4,12l0,0c-1,0-1.8-0.8-1.8-1.8l0,0c0-1,0.8-1.8,1.8-1.8l0,0C5,8.5,5.8,9.3,5.8,10.2L5.8,10.2z"/>
	
		<path display="inline" fill="#3D9CEA" stroke="#4D5054" stroke-linecap="round" stroke-linejoin="round" stroke-miterlimit="10" d="
		M23,24.9c0,1-0.8,1.8-1.8,1.8l0,0c-1,0-1.8-0.8-1.8-1.8l0,0c0-1,0.8-1.8,1.8-1.8l0,0C22.2,23.1,23,23.9,23,24.9L23,24.9z"/>
	
		<path display="inline" fill="#3D9CEA" stroke="#4D5054" stroke-linecap="round" stroke-linejoin="round" stroke-miterlimit="10" d="
		M38,10.1c0,1-0.8,1.8-1.8,1.8l0,0c-1,0-1.8-0.8-1.8-1.8l0,0c0-1,0.8-1.8,1.8-1.8l0,0C37.2,8.3,38,9.1,38,10.1L38,10.1z"/>
</g>
<g display="none">
	<path display="inline" fill="none" stroke="#4D5054" stroke-linecap="round" stroke-linejoin="round" stroke-miterlimit="10" d="
		M35.1,28.9h-30c-0.5,0-1-0.4-1-1V8.6c0-0.5,0.4-1,1-1h30c0.5,0,1,0.4,1,1V28C36.1,28.5,35.6,28.9,35.1,28.9z"/>
	
		<line display="inline" fill="none" stroke="#4D5054" stroke-linecap="round" stroke-linejoin="round" stroke-miterlimit="10" x1="20.1" y1="29.2" x2="20.1" y2="34.2"/>
	
		<line display="inline" fill="none" stroke="#4D5054" stroke-linecap="round" stroke-linejoin="round" stroke-miterlimit="10" x1="14.1" y1="34.3" x2="26.1" y2="34.3"/>
	
		<polyline display="inline" fill="none" stroke="#4D5054" stroke-linecap="round" stroke-linejoin="round" stroke-miterlimit="10" points="
		11.3,25 16.7,20.5 21.1,24.4 29.4,16.9 	"/>
	
		<path display="inline" fill="#3D9CEA" stroke="#4D5054" stroke-linecap="round" stroke-linejoin="round" stroke-miterlimit="10" d="
		M30,17.7c0,1-0.8,1.8-1.8,1.8l0,0c-1,0-1.8-0.8-1.8-1.8l0,0c0-1,0.8-1.8,1.8-1.8l0,0C29.2,15.9,30,16.7,30,17.7L30,17.7z"/>
	
		<path display="inline" fill="#3D9CEA" stroke="#4D5054" stroke-width="0.5" stroke-linecap="round" stroke-linejoin="round" stroke-miterlimit="10" d="
		M18.5,18.8h-0.9c-0.1,0-0.2-0.3-0.2-0.6V10c0-0.3,0.1-0.6,0.2-0.6h0.9c0.1,0,0.2,0.3,0.2,0.6v8.2C18.7,18.5,18.6,18.8,18.5,18.8z"
		/>
	
		<path display="inline" fill="#3D9CEA" stroke="#4D5054" stroke-width="0.5" stroke-linecap="round" stroke-linejoin="round" stroke-miterlimit="10" d="
		M23.1,18.8h-0.9c-0.1,0-0.2-0.2-0.2-0.4v-5c0-0.2,0.1-0.4,0.2-0.4h0.9c0.1,0,0.2,0.2,0.2,0.4v5C23.3,18.6,23.2,18.8,23.1,18.8z"/>
	
		<path display="inline" fill="#3D9CEA" stroke="#4D5054" stroke-width="0.5" stroke-linecap="round" stroke-linejoin="round" stroke-miterlimit="10" d="
		M14.6,18.8h-0.9c-0.1,0-0.2-0.1-0.2-0.3v-3.4c0-0.1,0.1-0.3,0.2-0.3h0.9c0.1,0,0.2,0.1,0.2,0.3v3.4C14.8,18.7,14.7,18.8,14.6,18.8z
		"/>
	<path display="inline" fill="none" stroke="#4D5054" stroke-linecap="round" stroke-linejoin="round" stroke-miterlimit="10" d="
		M38.8,24.4v3.9v2c0,0.1,0,0.3-0.1,0.4s-0.1,0.2-0.2,0.3c-0.1,0.1-0.2,0.2-0.3,0.2s-0.2,0.1-0.4,0.1h-4.4"/>
	<path display="inline" fill="none" stroke="#4D5054" stroke-linecap="round" stroke-linejoin="round" stroke-miterlimit="10" d="
		M1.5,10V6.2c0-0.1,0-0.3,0.1-0.4c0-0.1,0.1-0.2,0.2-0.3C1.9,5.4,2,5.3,2.1,5.3c0.1,0,0.2-0.1,0.4-0.1h6.5"/>
</g>
<g>
	<path fill="none" stroke="#4D5054" stroke-linecap="round" stroke-linejoin="round" stroke-miterlimit="10" d="M4.4,13
		c0.8-1.9,1.9-3.6,3.4-5.1s3.2-2.7,5.3-3.6"/>
	<path fill="none" stroke="#4D5054" stroke-linecap="round" stroke-linejoin="round" stroke-miterlimit="10" d="M13.4,35.2
		c-1.8-1-3.5-2.4-4.8-4.1"/>
	<path fill="none" stroke="#4D5054" stroke-linecap="round" stroke-linejoin="round" stroke-miterlimit="10" d="M33.5,11.3
		c1.2,1.9,1.9,3.9,2.3,5.9"/>
	<path fill="none" stroke="#4D5054" stroke-linecap="round" stroke-linejoin="round" stroke-miterlimit="10" d="M32.7,20
		c0,1.7-0.4,3.4-1,4.9c-0.6,1.5-1.6,2.9-2.7,4c-1.1,1.1-2.5,2.1-4,2.7c-1.5,0.6-3.2,1-4.9,1s-3.4-0.4-4.9-1c-1.5-0.6-2.9-1.6-4-2.7
		s-2.1-2.5-2.7-4c-0.6-1.5-1-3.2-1-4.9s0.4-3.4,1-4.9c0.6-1.5,1.6-2.9,2.7-4s2.5-2.1,4-2.7s3.2-1,4.9-1s3.4,0.4,4.9,1
		c1.5,0.6,2.9,1.6,4,2.7c1.1,1.1,2.1,2.5,2.7,4C32.3,16.6,32.7,18.3,32.7,20z"/>
	
		<line fill="none" stroke="#4D5054" stroke-linecap="round" stroke-linejoin="round" stroke-miterlimit="10" x1="24.3" y1="8.6" x2="29.4" y2="27.9"/>
	
		<line fill="none" stroke="#4D5054" stroke-linecap="round" stroke-linejoin="round" stroke-miterlimit="10" x1="24.3" y1="8.6" x2="7.8" y2="20.7"/>
	<path fill="#3D9CEA" stroke="#4D5054" stroke-linecap="round" stroke-linejoin="round" stroke-miterlimit="10" d="M26,8.3
		c0,1-0.8,1.8-1.8,1.8l0,0c-1,0-1.8-0.8-1.8-1.8l0,0c0-1,0.8-1.8,1.8-1.8l0,0C25.2,6.5,26,7.3,26,8.3L26,8.3z"/>
	
		<line fill="none" stroke="#4D5054" stroke-linecap="round" stroke-linejoin="round" stroke-miterlimit="10" x1="29.4" y1="27.9" x2="7.8" y2="20.7"/>
	<path fill="#3D9CEA" stroke="#4D5054" stroke-linecap="round" stroke-linejoin="round" stroke-miterlimit="10" d="M31.2,27.9
		c0,1-0.8,1.8-1.8,1.8l0,0c-1,0-1.8-0.8-1.8-1.8l0,0c0-1,0.8-1.8,1.8-1.8l0,0C30.4,26.1,31.2,26.9,31.2,27.9L31.2,27.9z"/>
	<path fill="#3D9CEA" stroke="#4D5054" stroke-linecap="round" stroke-linejoin="round" stroke-miterlimit="10" d="M9.2,20.7
		c0,1-0.8,1.8-1.8,1.8l0,0c-1,0-1.8-0.8-1.8-1.8l0,0c0-1,0.8-1.8,1.8-1.8l0,0C8.4,18.9,9.2,19.7,9.2,20.7L9.2,20.7z"/>
</g>
<g display="none">
	
		<line display="inline" fill="none" stroke="#4D5054" stroke-linecap="round" stroke-linejoin="round" stroke-miterlimit="10" x1="22.5" y1="8.6" x2="23" y2="21.3"/>
	
		<line display="inline" fill="none" stroke="#4D5054" stroke-linecap="round" stroke-linejoin="round" stroke-miterlimit="10" x1="5.7" y1="28.7" x2="23" y2="21.3"/>
	
		<line display="inline" fill="none" stroke="#4D5054" stroke-linecap="round" stroke-linejoin="round" stroke-miterlimit="10" x1="34.5" y1="30.9" x2="23" y2="21.3"/>
	
		<line display="inline" fill="none" stroke="#4D5054" stroke-linecap="round" stroke-linejoin="round" stroke-miterlimit="10" x1="22.6" y1="9" x2="34.5" y2="30.9"/>
	
		<line display="inline" fill="none" stroke="#4D5054" stroke-linecap="round" stroke-linejoin="round" stroke-miterlimit="10" x1="22.6" y1="9" x2="6.2" y2="28.6"/>
	
		<path display="inline" fill="#3D9CEA" stroke="#4D5054" stroke-linecap="round" stroke-linejoin="round" stroke-miterlimit="10" d="
		M24.7,8c0.3,1.2-0.4,2.4-1.6,2.7l0,0c-1.2,0.3-2.4-0.4-2.7-1.6l0,0c-0.3-1.2,0.4-2.4,1.6-2.7l0,0C23.2,6.1,24.4,6.8,24.7,8L24.7,8z
		"/>
	
		<line display="inline" fill="none" stroke="#4D5054" stroke-linecap="round" stroke-linejoin="round" stroke-miterlimit="10" x1="34.5" y1="30.9" x2="6.2" y2="28.6"/>
	
		<path display="inline" fill="#3D9CEA" stroke="#4D5054" stroke-linecap="round" stroke-linejoin="round" stroke-miterlimit="10" d="
		M36.7,30.4c0.3,1.2-0.4,2.4-1.6,2.7l0,0c-1.2,0.3-2.4-0.4-2.7-1.6l0,0c-0.3-1.2,0.4-2.4,1.6-2.7l0,0C35.2,28.5,36.4,29.2,36.7,30.4
		L36.7,30.4z"/>
	
		<path display="inline" fill="#3D9CEA" stroke="#4D5054" stroke-linecap="round" stroke-linejoin="round" stroke-miterlimit="10" d="
		M7.9,28.1c0.3,1.2-0.4,2.4-1.6,2.7l0,0c-1.2,0.3-2.4-0.4-2.7-1.6l0,0C3.3,28,4,26.8,5.2,26.5l0,0C6.4,26.2,7.6,26.9,7.9,28.1
		L7.9,28.1z"/>
</g>
<g display="none">
	<path display="inline" fill="none" stroke="#4D5054" stroke-linecap="round" stroke-linejoin="round" stroke-miterlimit="10" d="
		M20.1,34l-12-6c-0.3,0-0.5-0.3-0.5-0.7V12.7c0-0.4,0.2-0.7,0.5-0.7l12,6c0.3,0,0.5,0.3,0.5,0.7v14.6C20.6,33.7,20.4,34,20.1,34z"/>
	<path display="inline" fill="none" stroke="#4D5054" stroke-linecap="round" stroke-linejoin="round" stroke-miterlimit="10" d="
		M21.1,34l12-6c0.3,0,0.5-0.3,0.5-0.7V12.7c0-0.4-0.2-0.7-0.5-0.7l-12,6c-0.3,0-0.5,0.3-0.5,0.7v14.6C20.6,33.7,20.8,34,21.1,34z"/>
	<path display="inline" fill="none" stroke="#4D5054" stroke-linecap="round" stroke-linejoin="round" stroke-miterlimit="10" d="
		M36.1,23v3.9v2c0,0.1,0,0.3-0.1,0.4s-0.1,0.2-0.2,0.3s-0.2,0.2-0.3,0.2s-0.2,0.2-0.4,0.2l-4.4,2.4"/>
	<path display="inline" fill="none" stroke="#4D5054" stroke-linecap="round" stroke-linejoin="round" stroke-miterlimit="10" d="
		M4.1,23v3.9v2c0,0.1,0,0.3,0.1,0.4s0.1,0.2,0.2,0.3s0.2,0.2,0.3,0.2s0.2,0.2,0.4,0.2l4.4,2.4"/>
	<path display="inline" fill="none" stroke="#4D5054" stroke-linecap="round" stroke-linejoin="round" stroke-miterlimit="10" d="
		M20.6,18.4L8.3,12c-0.3,0-0.5-0.2-0.5-0.5l11.3-3.7c0-0.3,0.2-0.5,0.5-0.5l13.3,4.2c0.3,0,0.5,0.2,0.5,0.5l-12.3,5.9
		C21.1,18.1,20.9,18.4,20.6,18.4z"/>
	
		<path display="inline" fill="#3D9CEA" stroke="#4D5054" stroke-linecap="round" stroke-linejoin="round" stroke-miterlimit="10" d="
		M21.5,7.3c0,1-0.8,1.8-1.8,1.8l0,0c-1,0-1.8-0.8-1.8-1.8l0,0c0-1,0.8-1.8,1.8-1.8l0,0C20.7,5.5,21.5,6.3,21.5,7.3L21.5,7.3z"/>
	
		<path display="inline" fill="#3D9CEA" stroke="#4D5054" stroke-linecap="round" stroke-linejoin="round" stroke-miterlimit="10" d="
		M9.6,11.7c0,1-0.8,1.8-1.8,1.8l0,0c-1,0-1.8-0.8-1.8-1.8l0,0c0-1,0.8-1.8,1.8-1.8l0,0C8.8,10,9.6,10.8,9.6,11.7L9.6,11.7z"/>
	
		<path display="inline" fill="#3D9CEA" stroke="#4D5054" stroke-linecap="round" stroke-linejoin="round" stroke-miterlimit="10" d="
		M35.2,11.7c0,1-0.8,1.8-1.8,1.8l0,0c-1,0-1.8-0.8-1.8-1.8l0,0c0-1,0.8-1.8,1.8-1.8l0,0C34.4,10,35.2,10.8,35.2,11.7L35.2,11.7z"/>
	
		<path display="inline" fill="#3D9CEA" stroke="#4D5054" stroke-linecap="round" stroke-linejoin="round" stroke-miterlimit="10" d="
		M22.4,18c0,1-0.8,1.8-1.8,1.8l0,0c-1,0-1.8-0.8-1.8-1.8l0,0c0-1,0.8-1.8,1.8-1.8l0,0C21.6,16.2,22.4,17,22.4,18L22.4,18z"/>
</g>
<g display="none">
	
		<path display="inline" fill="#3D9CEA" stroke="#4D5054" stroke-linecap="round" stroke-linejoin="round" stroke-miterlimit="10" d="
		M22.3,19.2c0.3,1.2-0.4,2.4-1.6,2.7l0,0c-1.2,0.3-2.4-0.4-2.7-1.6l0,0c-0.3-1.2,0.4-2.4,1.6-2.7l0,0C20.8,17.3,22,18,22.3,19.2
		L22.3,19.2z"/>
	<path display="inline" fill="none" stroke="#4D5054" stroke-linecap="round" stroke-linejoin="round" stroke-miterlimit="10" d="
		M25.9,18.3c0.8,3.2-1.2,6.4-4.4,7.2l0,0c-3.2,0.8-6.4-1.2-7.2-4.4l0,0c-0.8-3.2,1.2-6.4,4.4-7.2l0,0C21.9,13.2,25.1,15.2,25.9,18.3
		L25.9,18.3z"/>
	<path display="inline" fill="none" stroke="#4D5054" stroke-linecap="round" stroke-linejoin="round" stroke-miterlimit="10" d="
		M32.7,18.4c-0.6-0.3-1.1-0.6-1.6-1c-0.9-0.7-1.7-1.6-2.4-2.7c-0.6-1.1-1-2.2-1.1-3.4c-0.1-0.6-0.1-1.2,0-1.8
		c-0.7-0.5-1.5-1-2.3-1.4c-0.5,0.4-1,0.7-1.6,0.9c-1.1,0.5-2.3,0.7-3.5,0.7c-1.2,0-2.4-0.3-3.5-0.7c-0.6-0.2-1.1-0.5-1.6-0.9
		c-0.8,0.4-1.6,0.8-2.3,1.4c0.1,0.6,0,1.2,0,1.8c-0.1,1.2-0.5,2.3-1.1,3.4s-1.4,2-2.4,2.7c-0.5,0.4-1,0.7-1.6,1
		c0,0.4-0.1,0.9-0.1,1.3s0,0.9,0.1,1.3c0.6,0.3,1.1,0.6,1.6,1c0.9,0.7,1.7,1.6,2.4,2.7c0.6,1.1,1,2.2,1.1,3.4c0.1,0.6,0.1,1.2,0,1.8
		c0.7,0.5,1.5,1,2.3,1.4c0.5-0.4,1-0.7,1.6-0.9c1.1-0.5,2.3-0.7,3.5-0.7c1.2,0,2.4,0.3,3.5,0.7c0.6,0.2,1.1,0.5,1.6,0.9
		c0.8-0.4,1.6-0.8,2.3-1.4c-0.1-0.6,0-1.2,0-1.8c0.1-1.2,0.5-2.3,1.1-3.4c0.6-1.1,1.4-2,2.4-2.7c0.5-0.4,1-0.7,1.6-1
		c0-0.4,0.1-0.9,0.1-1.3S32.7,18.9,32.7,18.4z"/>
</g>
<g display="none">
	
		<path display="inline" fill="#3D9CEA" stroke="#4D5054" stroke-linecap="round" stroke-linejoin="round" stroke-miterlimit="10" d="
		M18.8,10.4c0,0.8-0.7,1.5-1.5,1.5l0,0c-0.8,0-1.5-0.7-1.5-1.5l0,0c0-0.8,0.7-1.5,1.5-1.5l0,0C18.1,8.9,18.8,9.6,18.8,10.4
		L18.8,10.4z"/>
	
		<path display="inline" fill="#3D9CEA" stroke="#4D5054" stroke-linecap="round" stroke-linejoin="round" stroke-miterlimit="10" d="
		M25.1,10.4c0,0.8-0.7,1.5-1.5,1.5l0,0c-0.8,0-1.5-0.7-1.5-1.5l0,0c0-0.8,0.7-1.5,1.5-1.5l0,0C24.4,8.9,25.1,9.6,25.1,10.4
		L25.1,10.4z"/>
	<path display="inline" fill="none" stroke="#4D5054" stroke-linecap="round" stroke-linejoin="round" stroke-miterlimit="10" d="
		M11.7,16.8c4.3,0,8.6-0.1,12.9-0.1c1.3,0,2.7,0,4,0c0.3,0,0.3,0.1,0.3,0.3c0,4,0,6,0,10c0,1.3-0.9,2.2-2.2,2.2c-0.3,0-0.6,0-0.9,0
		c-0.3,0-0.4,0.1-0.4,0.4c0,1.3,0,2.5,0,3.8c0,0.8-0.4,1.4-1,1.7c-0.7,0.4-1.4,0.3-2-0.2c-0.5-0.4-0.8-0.9-0.8-1.5
		c0-1.2,0-2.5,0-3.7c0-0.5,0-0.5-0.5-0.5c-0.6,0-1.1,0-1.7,0c-0.3,0-0.4,0.1-0.4,0.4c0,1.3,0,2.6,0,3.9c0,0.9-0.7,1.7-1.6,1.8
		c-0.8,0.1-1.8-0.4-2.1-1.2c-0.1-0.3-0.2-0.6-0.2-1c0-1.2,0-2.4,0-3.6c0-0.4,0-0.4-0.4-0.4c-0.5,0-0.9,0-1.4,0c-1-0.1-1.7-1-1.7-2
		c0-4,0-6.1,0-10.1C11.7,17,11.7,16.9,11.7,16.8z"/>
	<path display="inline" fill="none" stroke="#4D5054" stroke-linecap="round" stroke-linejoin="round" stroke-miterlimit="10" d="
		M20.3,13.9c-2.7,0-5.4,0-8.1,0c-0.5,0-0.6,0-0.5-0.5c0.3-2.7,1.6-4.7,3.9-6.1C16.2,6.9,16,7,15.7,6.4c-0.3-0.5-0.6-1.1-0.9-1.6
		c0-0.1-0.1-0.1-0.1-0.2c-0.1-0.2-0.1-0.4,0.1-0.4c0.1,0,0.3,0.1,0.4,0.2c0.2,0.4,0.4,0.8,0.7,1.2c0.2,0.3,0.3,0.6,0.5,0.9
		c0.1,0.2,0.2,0.3,0.5,0.2C17.7,6.2,18.7,6,19.7,6c1.3-0.1,2.7,0.1,3.9,0.6c0.3,0.1,0.4,0.1,0.6-0.2c0.3-0.6,0.7-1.3,1-1.9
		c0-0.1,0.1-0.2,0.2-0.2c0.1,0,0.2-0.1,0.3,0c0.1,0,0.1,0.2,0.1,0.3c0,0.1-0.1,0.2-0.1,0.3c-0.3,0.6-0.7,1.3-1.1,1.9
		c-0.1,0.3-0.1,0.4,0.1,0.5c1.9,1.1,3.2,2.6,3.8,4.7c0.1,0.5,0.2,1,0.3,1.5c0.1,0.6,0,0.6-0.5,0.6C25.7,13.9,23,13.9,20.3,13.9
		C20.3,13.9,20.3,13.9,20.3,13.9z"/>
	<path display="inline" fill="none" stroke="#4D5054" stroke-linecap="round" stroke-linejoin="round" stroke-miterlimit="10" d="
		M9.9,19.1c0,1.4,0,2.7,0,4.1c0,0.8-0.5,1.6-1.2,1.8c-0.8,0.3-1.6,0.2-2.2-0.5C6.1,24.1,6,23.6,6,23c-0.1-2.6-0.1-3.1-0.2-5.7
		c0-0.9,0.4-1.5,1.2-1.9c0.8-0.4,1.6-0.2,2.2,0.3c0.4,0.4,0.7,0.8,0.7,1.4C9.9,18.5,9.9,17.8,9.9,19.1C9.9,19.1,9.9,19.1,9.9,19.1z"
		/>
	<path display="inline" fill="none" stroke="#4D5054" stroke-linecap="round" stroke-linejoin="round" stroke-miterlimit="10" d="
		M34.5,20.2c0,1.3,0,1.6,0,2.9c0,0.9-0.5,1.6-1.2,1.9c-1.2,0.5-2.6-0.4-2.6-1.7c0-2.7,0-3.4,0-6.1c0-1,0.8-1.9,1.8-1.9
		c1.1,0,1.9,0.7,2,1.8c0,0.4,0,0.7,0,1.1C34.5,19.1,34.5,19.2,34.5,20.2z"/>
</g>
<g display="none">
	<g display="inline">
		<path fill="none" stroke="#4D5054" stroke-linecap="round" stroke-linejoin="round" stroke-miterlimit="10" d="M30.8,15.7l6.1-3
			c0.1-0.1,0.1-0.3-0.1-0.5L20.7,5.7c-0.1-0.1-0.4-0.2-0.5-0.1L3.8,12.3c-0.1,0.1-0.1,0.3,0.1,0.5l6,3"/>
		<path fill="none" stroke="#4D5054" stroke-linecap="round" stroke-linejoin="round" stroke-miterlimit="10" d="M17.1,19.3
			l-7.2-3.5l-6.1,2.5c-0.1,0.1-0.1,0.3,0.1,0.5l6.7,3.3"/>
		<path fill="none" stroke="#4D5054" stroke-linecap="round" stroke-linejoin="round" stroke-miterlimit="10" d="M30.2,21.9l6.8-3.3
			c0.1-0.1,0.1-0.3-0.1-0.5l-6-2.4l-7.2,3.6"/>
		<path fill="none" stroke="#4D5054" stroke-linecap="round" stroke-linejoin="round" stroke-miterlimit="10" d="M20.1,26.7L10.6,22
			l-6.8,2.8c-0.1,0.1-0.1,0.3,0.1,0.5l16.2,8c0.1,0.1,0.4,0.1,0.5,0l16.3-8.1c0.1-0.1,0.1-0.3-0.1-0.5l-6.7-2.7l-9.5,4.7
			C20.5,26.8,20.3,26.8,20.1,26.7z"/>
		<path fill="none" stroke="#4D5054" stroke-linecap="round" stroke-linejoin="round" stroke-miterlimit="10" d="M17.1,19.3l3,1.5
			c0.1,0.1,0.4,0.1,0.5,0l3-1.5"/>
	</g>
	
		<path display="inline" fill="#3D9CEA" stroke="#4D5054" stroke-linecap="round" stroke-linejoin="round" stroke-miterlimit="10" d="
		M22.5,5.5c0.3,1.2-0.4,2.4-1.6,2.7l0,0c-1.2,0.3-2.4-0.4-2.7-1.6l0,0c-0.3-1.2,0.4-2.4,1.6-2.7l0,0C21,3.5,22.2,4.3,22.5,5.5
		L22.5,5.5z"/>
	
		<path display="inline" fill="#3D9CEA" stroke="#4D5054" stroke-linecap="round" stroke-linejoin="round" stroke-miterlimit="10" d="
		M22.4,33c0.3,1.2-0.4,2.4-1.6,2.7l0,0c-1.2,0.3-2.4-0.4-2.7-1.6l0,0c-0.3-1.2,0.4-2.4,1.6-2.7l0,0C20.9,31.1,22.1,31.8,22.4,33
		L22.4,33z"/>
	
		<path display="inline" fill="#3D9CEA" stroke="#4D5054" stroke-linecap="round" stroke-linejoin="round" stroke-miterlimit="10" d="
		M5.9,17.4c0.3,1.2-0.4,2.4-1.6,2.7l0,0c-1.2,0.3-2.4-0.4-2.7-1.6l0,0c-0.3-1.2,0.4-2.4,1.6-2.7l0,0C4.4,15.5,5.7,16.2,5.9,17.4
		L5.9,17.4z"/>
	
		<path display="inline" fill="#3D9CEA" stroke="#4D5054" stroke-linecap="round" stroke-linejoin="round" stroke-miterlimit="10" d="
		M38.7,24.8c0.3,1.2-0.4,2.4-1.6,2.7l0,0c-1.2,0.3-2.4-0.4-2.7-1.6l0,0c-0.3-1.2,0.4-2.4,1.6-2.7l0,0C37.2,22.9,38.4,23.6,38.7,24.8
		L38.7,24.8z"/>
</g>
</svg>
